<svg xmlns="http://www.w3.org/2000/svg" width="32" height="32" viewBox="0 0 32 32" fill="none">
  <g clip-path="url(#clip0_1_1489)">
    <path d="M20.0943 26.6664C20.3583 26.6607 20.6105 26.556 20.801 26.3731C20.9883 26.1856 21.0934 25.9314 21.0934 25.6664C21.0934 25.4014 20.9883 25.1473 20.801 24.9598L12.001 16.1598L20.8143 7.0131C21.0016 6.8256 21.1068 6.57143 21.1068 6.30643C21.1068 6.04143 21.0016 5.78727 20.8143 5.59977C20.6268 5.4125 20.3727 5.30731 20.1076 5.30731C19.8426 5.30731 19.5885 5.4125 19.401 5.59977L9.90765 15.4664C9.81533 15.5581 9.74207 15.6672 9.69207 15.7873C9.64207 15.9075 9.61633 16.0363 9.61633 16.1664C9.61633 16.2966 9.64207 16.4254 9.69207 16.5455C9.74207 16.6657 9.81533 16.7747 9.90765 16.8664L19.3876 26.3864C19.5787 26.5667 19.8316 26.6669 20.0943 26.6664Z" fill="white"/>
  </g>
  <defs>
    <clipPath id="clip0_1_1489">
      <rect width="32" height="32" fill="white" transform="matrix(-1 0 0 1 32 0)"/>
    </clipPath>
  </defs>
</svg>