<svg xmlns="http://www.w3.org/2000/svg" width="16" height="16" viewBox="0 0 16 16" fill="none">
  <g clip-path="url(#clip0_2_274)">
    <path d="M7.90628 11.3334C7.77493 11.3336 7.64847 11.2835 7.55295 11.1934L2.80628 6.44002C2.75715 6.39425 2.71775 6.33905 2.69043 6.27772C2.6631 6.21638 2.6484 6.15017 2.64722 6.08304C2.64603 6.0159 2.65838 5.94922 2.68353 5.88696C2.70868 5.8247 2.74611 5.76814 2.79359 5.72067C2.84107 5.67319 2.89762 5.63576 2.95988 5.61061C3.02214 5.58546 3.08883 5.57311 3.15596 5.5743C3.2231 5.57548 3.28931 5.59018 3.35064 5.6175C3.41197 5.64483 3.46717 5.68423 3.51295 5.73336L7.91295 10.1334L12.4929 5.72669C12.5875 5.63466 12.7143 5.58316 12.8463 5.58316C12.9783 5.58316 13.105 5.63466 13.1996 5.72669C13.2932 5.82044 13.3458 5.94752 13.3458 6.08002C13.3458 6.21252 13.2932 6.33961 13.1996 6.43336L8.26628 11.1867C8.21982 11.2349 8.16379 11.2728 8.10179 11.2981C8.03979 11.3234 7.9732 11.3354 7.90628 11.3334Z" fill="white"/>
  </g>
  <defs>
    <clipPath id="clip0_2_274">
      <rect width="16" height="16" fill="white"/>
    </clipPath>
  </defs>
</svg>