<svg xmlns="http://www.w3.org/2000/svg" width="32" height="32" viewBox="0 0 32 32" fill="none">
  <g clip-path="url(#clip0_1_1488)">
    <path d="M11.9057 26.6664C11.6417 26.6607 11.3895 26.556 11.199 26.3731C11.0118 26.1856 10.9066 25.9314 10.9066 25.6664C10.9066 25.4014 11.0118 25.1473 11.199 24.9598L19.999 16.1598L11.1857 7.0131C10.9984 6.8256 10.8932 6.57143 10.8932 6.30643C10.8932 6.04143 10.9984 5.78727 11.1857 5.59977C11.3732 5.4125 11.6274 5.30731 11.8924 5.30731C12.1574 5.30731 12.4115 5.4125 12.599 5.59977L22.0924 15.4664C22.1847 15.5581 22.258 15.6672 22.308 15.7873C22.3579 15.9075 22.3837 16.0363 22.3837 16.1664C22.3837 16.2966 22.3579 16.4254 22.308 16.5455C22.258 16.6657 22.1847 16.7747 22.0924 16.8664L12.6124 26.3864C12.4213 26.5667 12.1684 26.6669 11.9057 26.6664Z" fill="white"/>
  </g>
  <defs>
    <clipPath id="clip0_1_1488">
      <rect width="32" height="32" fill="white"/>
    </clipPath>
  </defs>
</svg>