<svg xmlns="http://www.w3.org/2000/svg" width="26" height="27" viewBox="0 0 26 27" fill="none">
<circle cx="13" cy="13.5" r="13" fill="#BBF3D2"/>
<path d="M17.1834 9.60344C16.5985 9.60344 16.1417 9.13177 15.8298 8.63699C15.7848 8.56551 15.7353 8.49655 15.6813 8.43011C15.4205 8.10075 15.0672 7.85373 14.6212 7.68906C14.1752 7.52438 13.6674 7.44204 13.0979 7.44204C12.5009 7.44204 11.976 7.53467 11.5232 7.71993C11.0703 7.9052 10.7204 8.16594 10.4733 8.50215C10.2263 8.83151 10.1028 9.2089 10.1028 9.63431C10.1028 10.2656 10.3601 10.7528 10.8747 11.0958C11.3962 11.432 12.0446 11.6928 12.82 11.8781L14.2506 12.2589C15.4926 12.5676 16.5184 13.0411 17.3281 13.6792C18.1446 14.3173 18.5529 15.2471 18.5529 16.4684C18.5529 17.3124 18.3333 18.0672 17.8941 18.7328C17.4619 19.3915 16.8272 19.9061 15.9901 20.2766C15.1598 20.6472 14.1717 20.8324 13.0259 20.8324C11.9143 20.8324 10.9502 20.654 10.1337 20.2972C9.32403 19.9404 8.6859 19.4361 8.21932 18.7842C7.97652 18.44 7.79018 18.0613 7.6603 17.6481C7.46329 17.0214 8.00223 16.4582 8.6592 16.4582C9.25359 16.4582 9.7135 16.9428 10.0074 17.4594C10.0706 17.5705 10.1436 17.6759 10.2263 17.7756C10.5282 18.1324 10.9193 18.4 11.3997 18.5784C11.8868 18.7568 12.4255 18.8426 13.0156 18.8357C13.6468 18.8357 14.2129 18.7362 14.7138 18.5372C15.2147 18.3382 15.6058 18.0569 15.8871 17.6932C16.1685 17.3296 16.3091 16.9076 16.3091 16.4273C16.3091 16.0156 16.1925 15.6656 15.9592 15.3775C15.7259 15.0893 15.4068 14.856 15.002 14.6776C14.5972 14.4992 14.0963 14.3311 13.4993 14.1733L11.729 13.7101C10.4802 13.367 9.51959 12.8764 8.84715 12.2383C8.18158 11.5933 7.85222 10.7665 7.85908 9.75782C7.85908 8.91385 8.08551 8.16594 8.53838 7.51409C8.99811 6.86224 9.62937 6.36134 10.4322 6.0114C11.2418 5.6546 12.1476 5.4762 13.1494 5.4762C14.1443 5.4762 15.0329 5.6546 15.8151 6.0114C16.6042 6.36134 17.2183 6.85194 17.6574 7.48321C17.8759 7.78904 18.0425 8.11462 18.1572 8.45995C18.3588 9.06667 17.8227 9.60344 17.1834 9.60344Z" fill="#00C696"/>
<path d="M13.1906 4.5L13.1906 6.3291" stroke="#00C696" stroke-width="2" stroke-linecap="round"/>
<path d="M13.1906 19.9178L13.1906 21.7469" stroke="#00C696" stroke-width="2" stroke-linecap="round"/>
</svg>