<svg xmlns="http://www.w3.org/2000/svg" width="24" height="24" viewBox="0 0 24 24" fill="none">
  <path d="M21.0836 9.24887C20.6824 9.19291 20.2994 9.05077 19.9633 8.83302C19.6272 8.61528 19.3466 8.32754 19.1424 7.99124C18.9382 7.65495 18.8156 7.27875 18.7839 6.89067C18.7521 6.50258 18.8119 6.11261 18.9588 5.7498C19.0522 5.51261 19.066 5.25329 18.9982 5.00821C18.9303 4.76313 18.7843 4.54457 18.5806 4.38318C17.6812 3.65806 16.6575 3.08842 15.5551 2.69967C15.304 2.61013 15.0299 2.59895 14.7719 2.6677C14.5139 2.73646 14.285 2.88164 14.1179 3.08258C13.8664 3.39133 13.545 3.64104 13.1781 3.81277C12.8111 3.98451 12.4082 4.07376 12 4.07376C11.5918 4.07376 11.1889 3.98451 10.822 3.81277C10.455 3.64104 10.1336 3.39133 9.88211 3.08258C9.71503 2.88164 9.48616 2.73646 9.22811 2.6677C8.97007 2.59895 8.696 2.61013 8.44496 2.69967C7.42704 3.05858 6.47531 3.57118 5.62568 4.21813C5.41151 4.38091 5.25725 4.60525 5.18549 4.8583C5.11372 5.11134 5.12822 5.3798 5.22685 5.62436C5.38553 5.99677 5.45109 6.39971 5.41827 6.80084C5.38546 7.20197 5.25518 7.59014 5.03789 7.9342C4.82061 8.27826 4.52236 8.56864 4.16707 8.78204C3.81179 8.99545 3.40936 9.12594 2.99206 9.16304C2.72114 9.19085 2.46668 9.30145 2.26614 9.47854C2.0656 9.65563 1.92957 9.88986 1.8781 10.1467C1.75006 10.7553 1.68556 11.3745 1.68556 11.9953C1.68462 12.515 1.72832 13.034 1.81621 13.5468C1.85995 13.8119 1.99345 14.0558 2.19604 14.2408C2.39864 14.4257 2.65907 14.5415 2.93705 14.5701C3.36351 14.6085 3.77419 14.7445 4.1347 14.9665C4.49521 15.1886 4.79506 15.4904 5.00917 15.8466C5.22328 16.2028 5.34541 16.603 5.36534 17.0138C5.38526 17.4246 5.30241 17.8341 5.12371 18.2078C5.00676 18.4509 4.97775 18.7246 5.04129 18.9853C5.10483 19.2461 5.25726 19.479 5.4744 19.647C6.3684 20.359 7.38228 20.9194 8.47247 21.3042C8.61188 21.3505 8.75815 21.375 8.90567 21.3768C9.10795 21.3764 9.30718 21.3294 9.48665 21.2398C9.66611 21.1502 9.82059 21.0206 9.93712 20.8618C10.1822 20.519 10.5107 20.2388 10.8942 20.0455C11.2776 19.8522 11.7044 19.7517 12.1375 19.7527C12.5572 19.7532 12.9709 19.8478 13.3457 20.0289C13.7206 20.2099 14.0462 20.4726 14.2967 20.7958C14.4633 21.0108 14.6993 21.1669 14.968 21.2398C15.2366 21.3126 15.5228 21.2981 15.782 21.1985C16.7788 20.8133 17.7069 20.2809 18.5325 19.6206C18.7399 19.456 18.8876 19.2325 18.9543 18.9821C19.021 18.7318 19.0033 18.4677 18.9038 18.2276C18.7421 17.86 18.6716 17.4613 18.6978 17.0631C18.7241 16.6648 18.8464 16.2778 19.0551 15.9327C19.2638 15.5876 19.5533 15.2939 19.9005 15.0746C20.2478 14.8553 20.6434 14.7165 21.0561 14.6691C21.3237 14.6336 21.5726 14.5172 21.7667 14.3368C21.9608 14.1563 22.09 13.9213 22.1357 13.6656C22.2461 13.115 22.3059 12.556 22.3145 11.9953C22.3146 11.4039 22.257 10.8137 22.1425 10.2326C22.0961 9.98255 21.9688 9.75294 21.7787 9.57635C21.5886 9.39976 21.3454 9.28517 21.0836 9.24887ZM15.4382 11.9953C15.4382 12.6482 15.2365 13.2864 14.8587 13.8293C14.4809 14.3721 13.944 14.7952 13.3157 15.045C12.6875 15.2949 11.9962 15.3603 11.3293 15.2329C10.6623 15.1055 10.0497 14.7911 9.56887 14.3295C9.08804 13.8678 8.76058 13.2796 8.62792 12.6393C8.49526 11.999 8.56335 11.3352 8.82357 10.7321C9.0838 10.1289 9.52447 9.61334 10.0899 9.25062C10.6553 8.8879 11.32 8.6943 12 8.6943C12.9119 8.6943 13.7864 9.04208 14.4311 9.66114C15.0759 10.2802 15.4382 11.1198 15.4382 11.9953Z" fill="#7A8FAD"/>
</svg>