<svg xmlns="http://www.w3.org/2000/svg" width="32" height="32" viewBox="0 0 32 32" fill="none">
  <g clip-path="url(#clip0_1_1517)">
    <path d="M16.0006 32.132C15.7859 32.132 15.5725 32.0767 15.3801 31.9657L2.48383 24.5201C2.09976 24.2986 1.86337 23.8885 1.86337 23.4455V8.55444C1.86337 8.11143 2.09976 7.7013 2.48383 7.4798L15.3801 0.0342621C15.7642 -0.187243 16.237 -0.187243 16.621 0.0342621L29.5161 7.4798C29.9002 7.7013 30.1366 8.11143 30.1366 8.55444V23.4455C30.1366 23.8885 29.9002 24.2986 29.5161 24.5201L16.621 31.9657C16.4287 32.0767 16.2153 32.132 16.0006 32.132ZM4.34521 22.7289L16.0006 29.4578L27.6547 22.7289V9.27107L16.0006 2.54217L4.34521 9.27107V22.7289Z" fill="white"/>
    <path d="M16.0006 32.132C15.3156 32.132 14.7597 31.576 14.7597 30.891V16C14.7597 15.315 15.3156 14.759 16.0006 14.759C16.6856 14.759 17.2415 15.315 17.2415 16V30.891C17.2415 31.576 16.6856 32.132 16.0006 32.132Z" fill="white"/>
    <path d="M15.9994 17.2409C15.7891 17.2409 15.5756 17.1876 15.3802 17.074L2.48388 9.62848C1.8901 9.2866 1.68721 8.52778 2.02908 7.93399C2.37219 7.34021 3.12854 7.13608 3.72418 7.47982L16.6205 14.9254C17.2143 15.2678 17.4171 16.0267 17.0746 16.6205C16.8451 17.0188 16.4281 17.2409 15.9994 17.2409Z" fill="white"/>
    <path d="M16.0019 17.2409C15.5731 17.2409 15.1562 17.0182 14.926 16.6205C14.5835 16.0267 14.7864 15.2678 15.3802 14.9254L28.2752 7.47982C28.8684 7.13608 29.6272 7.34021 29.9703 7.93399C30.3128 8.52778 30.1099 9.2866 29.5161 9.6291L16.6211 17.0746C16.4263 17.1876 16.2122 17.2409 16.0019 17.2409Z" fill="white"/>
  </g>
  <defs>
    <clipPath id="clip0_1_1517">
      <rect width="32" height="32" fill="white"/>
    </clipPath>
  </defs>
</svg>